<?xml version="1.0" encoding="utf-8"?>
<!-- Generator: Adobe Illustrator 15.0.0, SVG Export Plug-In . SVG Version: 6.00 Build 0)  -->
<!DOCTYPE svg PUBLIC "-//W3C//DTD SVG 1.1//EN" "http://www.w3.org/Graphics/SVG/1.1/DTD/svg11.dtd">
<svg version="1.1" xmlns="http://www.w3.org/2000/svg" xmlns:xlink="http://www.w3.org/1999/xlink" x="0px" y="0px"
	 width="595.28px" height="841.89px" viewBox="0 0 595.28 841.89" enable-background="new 0 0 595.28 841.89" xml:space="preserve">
<g id="Layer_2">
	<g opacity="0.56">
		<rect x="-8.542" y="-8.5" fill="#EDEDED" width="613" height="862"/>
		<radialGradient id="SVGID_1_" cx="298.459" cy="422.5" r="298" gradientUnits="userSpaceOnUse">
			<stop  offset="0" style="stop-color:#FFFFFF"/>
			<stop  offset="1" style="stop-color:#EDEDED"/>
		</radialGradient>
		<circle fill="url(#SVGID_1_)" cx="298.459" cy="422.5" r="298"/>
	</g>
	<text transform="matrix(1 0 0 1 136.0918 64.5)"><tspan x="0" y="0" fill="#3C3C3B" font-family="'Lato-Light'" font-size="40">Free </tspan><tspan x="87.358" y="0" fill="#3C3C3B" font-family="'Lato-Bold'" font-size="40">Map Pin</tspan><tspan x="235.376" y="0" fill="#3C3C3B" font-family="'Lato-Light'" font-size="40"> Icons</tspan><tspan x="93.167" y="26" fill="#706F6F" font-family="'Lato-Hairline'" font-size="18">by GraphicsDrawer</tspan></text>
	<text transform="matrix(1 0 0 1 231.2949 825.5)" fill="#3C3C3B" font-family="'Lato-Regular'" font-size="12">www.graphicsdrawer.com</text>
	<g>
		<path fill="#3C3C3B" d="M311.696,770.78h-24.178l-4.339,7.4v12.631c0,0.6,0.486,1.085,1.085,1.085h30.685
			c0.6,0,1.085-0.485,1.085-1.085v-12.631L311.696,770.78z M305.194,786.8c-0.084,0.084-2.102,2.073-5.716,2.073
			c-3.748,0-5.867-1.971-5.955-2.055c-0.362-0.344-0.376-0.916-0.033-1.276c0.343-0.361,0.912-0.377,1.274-0.036
			c0.08,0.074,1.732,1.561,4.714,1.561c2.871,0,4.42-1.524,4.434-1.541c0.353-0.353,0.924-0.354,1.278-0.003
			C305.544,785.874,305.546,786.446,305.194,786.8z M306.366,778.181c-0.298,0-0.662,0.212-0.811,0.471l-1.08,1.896
			c-0.149,0.259-0.514,0.472-0.813,0.472h-8.636c-0.298,0-0.662-0.213-0.809-0.473l-1.069-1.895
			c-0.146-0.259-0.511-0.472-0.809-0.472h-7.341l3.467-6.226h22.164l3.587,6.226H306.366z"/>
		<g>
			<path fill="#3C3C3B" d="M287.148,799.791c-0.179,0.216-0.433,0.382-0.761,0.5c-0.328,0.119-0.691,0.178-1.09,0.178
				c-0.418,0-0.785-0.091-1.101-0.274c-0.316-0.182-0.56-0.447-0.731-0.795c-0.171-0.348-0.259-0.757-0.264-1.227v-0.328
				c0-0.483,0.081-0.901,0.244-1.255c0.162-0.353,0.397-0.623,0.704-0.811c0.307-0.187,0.666-0.28,1.078-0.28
				c0.574,0,1.022,0.138,1.346,0.411s0.515,0.671,0.575,1.193h-0.97c-0.044-0.277-0.142-0.479-0.294-0.607s-0.36-0.193-0.626-0.193
				c-0.338,0-0.597,0.127-0.774,0.382s-0.267,0.634-0.269,1.137v0.309c0,0.508,0.096,0.89,0.289,1.15
				c0.192,0.259,0.475,0.388,0.847,0.388c0.375,0,0.641-0.08,0.801-0.238v-0.835h-0.907v-0.733h1.903V799.791z"/>
			<path fill="#3C3C3B" d="M289.746,798.631h-0.794v1.771h-0.997v-4.837h1.797c0.571,0,1.012,0.128,1.322,0.383
				c0.31,0.254,0.465,0.614,0.465,1.079c0,0.329-0.072,0.604-0.214,0.825c-0.143,0.22-0.359,0.396-0.649,0.527l1.047,1.977v0.046
				h-1.07L289.746,798.631z M288.952,797.824h0.804c0.25,0,0.444-0.063,0.582-0.19c0.137-0.128,0.206-0.303,0.206-0.526
				c0-0.229-0.064-0.408-0.194-0.538c-0.129-0.131-0.328-0.196-0.596-0.196h-0.801V797.824z"/>
			<path fill="#3C3C3B" d="M295.028,799.405h-1.748l-0.332,0.997h-1.06l1.801-4.837h0.923l1.811,4.837h-1.06L295.028,799.405z
				 M293.55,798.599h1.209l-0.608-1.81L293.55,798.599z"/>
			<path fill="#3C3C3B" d="M297.871,798.698v1.704h-0.996v-4.837h1.887c0.362,0,0.683,0.066,0.958,0.199
				c0.276,0.133,0.488,0.322,0.637,0.566c0.147,0.245,0.223,0.523,0.223,0.836c0,0.474-0.163,0.848-0.486,1.121
				c-0.325,0.273-0.773,0.41-1.348,0.41H297.871z M297.871,797.891h0.891c0.264,0,0.465-0.063,0.604-0.186
				c0.138-0.123,0.207-0.302,0.207-0.531c0-0.237-0.069-0.43-0.209-0.574c-0.14-0.147-0.333-0.223-0.579-0.227h-0.913V797.891z"/>
			<path fill="#3C3C3B" d="M305.199,800.402h-0.996v-2.073h-1.943v2.073h-0.997v-4.837h0.997v1.96h1.943v-1.96h0.996V800.402z"/>
			<path fill="#3C3C3B" d="M307.13,800.402h-0.997v-4.837h0.997V800.402z"/>
			<path fill="#3C3C3B" d="M311.852,798.791c-0.039,0.521-0.23,0.931-0.577,1.229c-0.347,0.3-0.804,0.448-1.37,0.448
				c-0.621,0-1.108-0.208-1.464-0.626c-0.356-0.417-0.533-0.99-0.533-1.72v-0.296c0-0.464,0.082-0.874,0.246-1.228
				c0.164-0.355,0.398-0.627,0.702-0.816c0.305-0.189,0.658-0.284,1.061-0.284c0.559,0,1.009,0.149,1.35,0.449
				c0.342,0.299,0.538,0.718,0.592,1.258h-0.998c-0.022-0.313-0.11-0.539-0.26-0.679c-0.149-0.141-0.377-0.211-0.684-0.211
				c-0.331,0-0.58,0.119-0.745,0.357c-0.164,0.237-0.249,0.606-0.254,1.107v0.366c0,0.522,0.079,0.904,0.237,1.146
				c0.158,0.242,0.408,0.362,0.75,0.362c0.307,0,0.537-0.071,0.689-0.212c0.151-0.14,0.237-0.357,0.26-0.652H311.852z"/>
			<path fill="#3C3C3B" d="M315.014,799.133c0-0.188-0.066-0.333-0.199-0.433c-0.134-0.101-0.373-0.207-0.718-0.319
				c-0.346-0.111-0.62-0.222-0.821-0.33c-0.549-0.297-0.823-0.696-0.823-1.2c0-0.261,0.073-0.494,0.22-0.698
				c0.148-0.205,0.359-0.365,0.635-0.48c0.276-0.115,0.585-0.173,0.929-0.173c0.346,0,0.653,0.063,0.924,0.188
				s0.479,0.302,0.629,0.53c0.15,0.229,0.226,0.486,0.226,0.777h-0.997c0-0.222-0.069-0.395-0.21-0.518
				c-0.139-0.122-0.335-0.184-0.588-0.184c-0.243,0-0.433,0.052-0.568,0.154c-0.135,0.104-0.203,0.239-0.203,0.407
				c0,0.157,0.08,0.289,0.238,0.396c0.158,0.105,0.393,0.206,0.699,0.299c0.567,0.171,0.979,0.383,1.239,0.635
				c0.259,0.252,0.39,0.567,0.39,0.943c0,0.418-0.159,0.747-0.476,0.984c-0.316,0.238-0.743,0.357-1.279,0.357
				c-0.371,0-0.711-0.067-1.017-0.204s-0.539-0.323-0.699-0.56c-0.161-0.236-0.241-0.512-0.241-0.824h1.001
				c0,0.533,0.317,0.801,0.956,0.801c0.236,0,0.422-0.049,0.556-0.146C314.947,799.44,315.014,799.306,315.014,799.133z"/>
		</g>
		<g>
			<path fill="#3C3C3B" d="M283.202,804.621v-2.899h0.856c0.256,0,0.484,0.058,0.682,0.172c0.199,0.114,0.352,0.276,0.461,0.485
				c0.109,0.21,0.163,0.45,0.163,0.721v0.146c0,0.275-0.054,0.517-0.164,0.726c-0.11,0.208-0.266,0.368-0.468,0.481
				c-0.202,0.112-0.435,0.169-0.696,0.169H283.202z M283.706,802.129v2.086h0.328c0.264,0,0.467-0.082,0.608-0.248
				c0.142-0.164,0.213-0.401,0.217-0.71v-0.161c0-0.313-0.068-0.553-0.205-0.719c-0.137-0.166-0.335-0.248-0.596-0.248H283.706z"/>
			<path fill="#3C3C3B" d="M290.335,803.506h-0.562v1.115h-0.503v-2.899h1.02c0.334,0,0.592,0.075,0.774,0.225
				c0.182,0.15,0.273,0.368,0.273,0.652c0,0.194-0.047,0.356-0.141,0.487c-0.093,0.131-0.224,0.231-0.391,0.303l0.651,1.207v0.025
				h-0.54L290.335,803.506z M289.774,803.1h0.518c0.17,0,0.302-0.042,0.398-0.128c0.096-0.085,0.144-0.203,0.144-0.352
				c0-0.156-0.044-0.275-0.132-0.36s-0.22-0.129-0.395-0.131h-0.532V803.1z"/>
			<path fill="#3C3C3B" d="M296.843,803.945h-1.123l-0.234,0.676h-0.524l1.096-2.899h0.451l1.098,2.899h-0.525L296.843,803.945z
				 M295.861,803.539h0.84l-0.42-1.201L295.861,803.539z"/>
			<path fill="#3C3C3B" d="M303.535,803.904l0.446-2.183h0.499l-0.669,2.899h-0.481l-0.552-2.117l-0.563,2.117h-0.483l-0.669-2.899
				h0.499l0.45,2.179l0.554-2.179h0.422L303.535,803.904z"/>
			<path fill="#3C3C3B" d="M309.948,803.326h-1.19v0.889h1.392v0.406h-1.896v-2.899h1.882v0.407h-1.378v0.8h1.19V803.326z"/>
			<path fill="#3C3C3B" d="M315.03,803.506h-0.562v1.115h-0.504v-2.899h1.021c0.333,0,0.592,0.075,0.774,0.225
				c0.181,0.15,0.272,0.368,0.272,0.652c0,0.194-0.047,0.356-0.141,0.487s-0.224,0.231-0.392,0.303l0.65,1.207v0.025h-0.539
				L315.03,803.506z M314.469,803.1h0.518c0.17,0,0.302-0.042,0.398-0.128c0.095-0.085,0.143-0.203,0.143-0.352
				c0-0.156-0.043-0.275-0.132-0.36s-0.221-0.129-0.396-0.131h-0.531V803.1z"/>
		</g>
	</g>
</g>
<g id="Layer_1">
	<g>
		<path fill="#009FE3" d="M429.653,149.35c0,15.123-18.762,39.435-18.762,39.435s-18.761-24.313-18.761-39.435
			c0-10.362,8.4-18.761,18.761-18.761C421.253,130.589,429.653,138.988,429.653,149.35z"/>
		<circle fill="#FFFFFF" cx="410.923" cy="149.828" r="11.869"/>
	</g>
	<g>
		<g>
			<path fill="#009FE3" d="M518.229,133.589c8.69,0,15.761,7.07,15.761,15.761c0,10.818-10.843,27.388-15.762,34.349
				c-4.919-6.957-15.76-23.518-15.76-34.349C502.469,140.66,509.539,133.589,518.229,133.589 M518.229,130.589
				c-10.36,0-18.761,8.399-18.761,18.761c0,15.123,18.761,39.435,18.761,39.435s18.761-24.313,18.761-39.435
				C536.99,138.988,528.59,130.589,518.229,130.589L518.229,130.589z"/>
		</g>
		<g>
			<path fill="#009FE3" d="M518.261,140.959c4.891,0,8.869,3.979,8.869,8.869c0,4.891-3.979,8.869-8.869,8.869
				s-8.869-3.979-8.869-8.869C509.392,144.938,513.37,140.959,518.261,140.959 M518.261,137.959
				c-6.555,0-11.869,5.313-11.869,11.869s5.314,11.869,11.869,11.869s11.869-5.314,11.869-11.869S524.815,137.959,518.261,137.959
				L518.261,137.959z"/>
		</g>
	</g>
	<g>
		<path fill="#009FE3" d="M431.184,244.046c0-11.207-9.085-20.292-20.292-20.292c-11.206,0-20.292,9.085-20.292,20.292
			c0,6.328,2.899,11.979,7.438,15.7l12.854,27.022l12.856-27.023C428.287,256.024,431.184,250.374,431.184,244.046z"/>
		<circle fill="#FFFFFF" cx="410.892" cy="243.025" r="9.317"/>
	</g>
	<g>
		<g>
			<path fill="#009FE3" d="M518.741,226.754c9.535,0,17.292,7.757,17.292,17.292c0,5.201-2.311,10.078-6.34,13.378l-0.52,0.426
				l-0.288,0.606l-10.145,21.328l-10.146-21.327l-0.288-0.606l-0.52-0.425c-4.027-3.301-6.338-8.178-6.338-13.379
				C501.449,234.511,509.206,226.754,518.741,226.754 M518.741,223.754c-11.208,0-20.292,9.085-20.292,20.292
				c0,6.328,2.896,11.979,7.437,15.7l12.855,27.022l12.854-27.023c4.542-3.721,7.438-9.371,7.438-15.699
				C539.033,232.839,529.947,223.754,518.741,223.754L518.741,223.754z"/>
		</g>
		<g>
			<path fill="#009FE3" d="M518.741,236.709c3.482,0,6.315,2.833,6.315,6.316s-2.833,6.316-6.315,6.316
				c-3.483,0-6.317-2.833-6.317-6.316S515.258,236.709,518.741,236.709 M518.741,233.709c-5.146,0-9.317,4.171-9.317,9.316
				s4.171,9.316,9.317,9.316c5.145,0,9.315-4.171,9.315-9.316S523.886,233.709,518.741,233.709L518.741,233.709z"/>
		</g>
	</g>
	<g>
		<path fill="#009FE3" d="M431.184,339.891c0-11.207-9.085-20.292-20.292-20.292c-11.206,0-20.292,9.085-20.292,20.292
			c0,7.719,4.311,14.431,10.655,17.861l9.637,14.683l9.636-14.682C426.873,354.322,431.184,347.61,431.184,339.891z"/>
		<circle fill="#FFFFFF" cx="410.891" cy="339.445" r="9.316"/>
	</g>
	<linearGradient id="SVGID_2_" gradientUnits="userSpaceOnUse" x1="292.3857" y1="133.6152" x2="318.8433" y2="179.441">
		<stop  offset="0" style="stop-color:#47C1F0"/>
		<stop  offset="0.5" style="stop-color:#00A0E4"/>
		<stop  offset="1" style="stop-color:#008CD3"/>
	</linearGradient>
	<path fill="url(#SVGID_2_)" d="M302.658,130.589c-10.36,0-18.76,8.399-18.76,18.761c0,15.123,18.76,39.435,18.76,39.435
		s18.761-24.313,18.761-39.435C321.419,138.988,313.021,130.589,302.658,130.589z M302.689,161.697
		c-6.555,0-11.868-5.314-11.868-11.869s5.313-11.869,11.868-11.869c6.556,0,11.868,5.313,11.868,11.869
		S309.245,161.697,302.689,161.697z"/>
	<linearGradient id="SVGID_3_" gradientUnits="userSpaceOnUse" x1="291.9658" y1="226.7363" x2="320.6128" y2="276.3543">
		<stop  offset="0" style="stop-color:#47C1F0"/>
		<stop  offset="0.5" style="stop-color:#00A0E4"/>
		<stop  offset="1" style="stop-color:#008CD3"/>
	</linearGradient>
	<path fill="url(#SVGID_3_)" d="M302.574,223.754c-11.207,0-20.292,9.085-20.292,20.292c0,6.328,2.897,11.979,7.437,15.7
		l12.855,27.022l12.855-27.023c4.539-3.721,7.437-9.371,7.437-15.699C322.866,232.839,313.781,223.754,302.574,223.754z
		 M302.574,252.086c-5.146,0-9.316-4.171-9.316-9.316c0-5.146,4.17-9.317,9.316-9.317c5.145,0,9.316,4.171,9.316,9.317
		C311.891,247.915,307.719,252.086,302.574,252.086z"/>
	<linearGradient id="SVGID_4_" gradientUnits="userSpaceOnUse" x1="292.5122" y1="322.3154" x2="316.7515" y2="364.2991">
		<stop  offset="0" style="stop-color:#47C1F0"/>
		<stop  offset="0.5" style="stop-color:#00A0E4"/>
		<stop  offset="1" style="stop-color:#008CD3"/>
	</linearGradient>
	<path fill="url(#SVGID_4_)" d="M302.658,319.599c-11.206,0-20.292,9.085-20.292,20.292c0,7.719,4.311,14.431,10.655,17.861
		l9.637,14.683l9.636-14.682c6.347-3.431,10.657-10.143,10.657-17.862C322.951,328.684,313.866,319.599,302.658,319.599z
		 M302.658,348.761c-5.144,0-9.316-4.171-9.316-9.316c0-5.146,4.172-9.317,9.316-9.317c5.145,0,9.316,4.171,9.316,9.317
		C311.975,344.59,307.803,348.761,302.658,348.761z"/>
	<g>
		<linearGradient id="SVGID_5_" gradientUnits="userSpaceOnUse" x1="185.0039" y1="133.6152" x2="211.4614" y2="179.441">
			<stop  offset="0" style="stop-color:#47C1F0"/>
			<stop  offset="0.5" style="stop-color:#00A0E4"/>
			<stop  offset="1" style="stop-color:#008CD3"/>
		</linearGradient>
		<path fill="url(#SVGID_5_)" d="M195.277,130.589c-10.361,0-18.761,8.399-18.761,18.761c0,15.123,18.761,39.435,18.761,39.435
			s18.761-24.313,18.761-39.435C214.038,138.988,205.638,130.589,195.277,130.589z M195.277,161.601
			c-6.555,0-11.869-5.313-11.869-11.869c0-6.555,5.313-11.869,11.869-11.869s11.869,5.314,11.869,11.869
			C207.146,156.288,201.832,161.601,195.277,161.601z"/>
		<linearGradient id="SVGID_6_" gradientUnits="userSpaceOnUse" x1="191.3521" y1="142.9341" x2="199.2026" y2="156.5317">
			<stop  offset="0" style="stop-color:#47C1F0"/>
			<stop  offset="0.5" style="stop-color:#00A0E4"/>
			<stop  offset="1" style="stop-color:#008CD3"/>
		</linearGradient>
		<circle fill="url(#SVGID_6_)" cx="195.277" cy="149.732" r="7.849"/>
	</g>
	<g>
		<linearGradient id="SVGID_7_" gradientUnits="userSpaceOnUse" x1="184.4341" y1="226.7363" x2="213.0811" y2="276.3543">
			<stop  offset="0" style="stop-color:#47C1F0"/>
			<stop  offset="0.5" style="stop-color:#00A0E4"/>
			<stop  offset="1" style="stop-color:#008CD3"/>
		</linearGradient>
		<path fill="url(#SVGID_7_)" d="M195.043,223.754c-11.206,0-20.292,9.085-20.292,20.292c0,6.328,2.897,11.979,7.438,15.7
			l12.854,27.022l12.856-27.023c4.539-3.721,7.436-9.371,7.436-15.699C215.335,232.839,206.251,223.754,195.043,223.754z
			 M194.995,252.086c-5.145,0-9.315-4.171-9.315-9.316c0-5.146,4.171-9.317,9.315-9.317c5.146,0,9.316,4.171,9.316,9.317
			C204.312,247.915,200.141,252.086,194.995,252.086z"/>
		<linearGradient id="SVGID_8_" gradientUnits="userSpaceOnUse" x1="192.0601" y1="237.6855" x2="197.9316" y2="247.8554">
			<stop  offset="0" style="stop-color:#47C1F0"/>
			<stop  offset="0.5" style="stop-color:#00A0E4"/>
			<stop  offset="1" style="stop-color:#008CD3"/>
		</linearGradient>
		<circle fill="url(#SVGID_8_)" cx="194.996" cy="242.771" r="5.871"/>
	</g>
	<g>
		<linearGradient id="SVGID_9_" gradientUnits="userSpaceOnUse" x1="184.9814" y1="322.3149" x2="209.2207" y2="364.2986">
			<stop  offset="0" style="stop-color:#47C1F0"/>
			<stop  offset="0.5" style="stop-color:#00A0E4"/>
			<stop  offset="1" style="stop-color:#008CD3"/>
		</linearGradient>
		<path fill="url(#SVGID_9_)" d="M195.128,319.599c-11.208,0-20.292,9.085-20.292,20.292c0,7.719,4.311,14.431,10.655,17.861
			l9.637,14.683l9.636-14.682c6.345-3.431,10.656-10.143,10.656-17.862C215.421,328.684,206.336,319.599,195.128,319.599z
			 M195.176,348.841c-5.146,0-9.316-4.171-9.316-9.317s4.171-9.316,9.316-9.316c5.145,0,9.316,4.171,9.316,9.316
			S200.321,348.841,195.176,348.841z"/>
		<linearGradient id="SVGID_10_" gradientUnits="userSpaceOnUse" x1="192.2559" y1="334.4668" x2="198.0962" y2="344.5826">
			<stop  offset="0" style="stop-color:#47C1F0"/>
			<stop  offset="0.5" style="stop-color:#00A0E4"/>
			<stop  offset="1" style="stop-color:#008CD3"/>
		</linearGradient>
		<circle fill="url(#SVGID_10_)" cx="195.176" cy="339.524" r="5.839"/>
	</g>
	<g>
		<linearGradient id="SVGID_11_" gradientUnits="userSpaceOnUse" x1="192.4043" y1="709.8535" x2="195.0244" y2="709.8535">
			<stop  offset="0" style="stop-color:#C6C6C6"/>
			<stop  offset="0.2667" style="stop-color:#EDEDED"/>
			<stop  offset="1" style="stop-color:#C1C1C2"/>
		</linearGradient>
		<polygon fill="url(#SVGID_11_)" points="195.024,723.12 193.731,725.41 192.404,723.12 192.404,694.298 195.024,694.298 		"/>
		<g>
			<radialGradient id="SVGID_12_" cx="193.5859" cy="686.2969" r="8.3662" gradientUnits="userSpaceOnUse">
				<stop  offset="0" style="stop-color:#FFEBA9"/>
				<stop  offset="0.5" style="stop-color:#FECC00"/>
				<stop  offset="1" style="stop-color:#F8AE00"/>
			</radialGradient>
			<circle fill="url(#SVGID_12_)" cx="193.586" cy="686.297" r="8.366"/>
		</g>
		<g opacity="0.23">
			<circle fill="#FFFFFF" cx="190.625" cy="682.811" r="2.564"/>
		</g>
		<g opacity="0.24">
			<circle fill="#FFFFFF" cx="187.792" cy="685.509" r="0.967"/>
		</g>
	</g>
	<g>
		<linearGradient id="SVGID_13_" gradientUnits="userSpaceOnUse" x1="77.7583" y1="133.6221" x2="104.2158" y2="179.4478">
			<stop  offset="0" style="stop-color:#47C1F0"/>
			<stop  offset="0.5" style="stop-color:#00A0E4"/>
			<stop  offset="1" style="stop-color:#008CD3"/>
		</linearGradient>
		<path fill="url(#SVGID_13_)" d="M106.792,149.357c0,15.123-18.761,39.435-18.761,39.435s-18.76-24.312-18.76-39.435
			c0-10.361,8.399-18.761,18.76-18.761C98.392,130.596,106.792,138.996,106.792,149.357z"/>
		<g>
			<defs>
				<path id="SVGID_14_" d="M106.792,149.356c0,15.124-18.761,39.436-18.761,39.436s-18.76-24.312-18.76-39.436
					c0-10.361,8.399-18.761,18.76-18.761C98.392,130.596,106.792,138.996,106.792,149.356z"/>
			</defs>
			<clipPath id="SVGID_15_">
				<use xlink:href="#SVGID_14_"  overflow="visible"/>
			</clipPath>
			<polygon opacity="0.2" clip-path="url(#SVGID_15_)" fill="#FFFFFF" points="114.196,127.932 69.018,168.261 64.677,142.353 
				81.269,127.932 			"/>
		</g>
		<linearGradient id="SVGID_16_" gradientUnits="userSpaceOnUse" x1="76.1499" y1="149.8281" x2="99.8882" y2="149.8281">
			<stop  offset="0" style="stop-color:#47C1F0"/>
			<stop  offset="0.5" style="stop-color:#00A0E4"/>
			<stop  offset="1" style="stop-color:#008CD3"/>
		</linearGradient>
		<circle fill="url(#SVGID_16_)" cx="88.019" cy="149.828" r="11.869"/>
		<linearGradient id="SVGID_17_" gradientUnits="userSpaceOnUse" x1="79.5957" y1="149.8599" x2="96.4424" y2="149.8599">
			<stop  offset="0" style="stop-color:#FFEBA9"/>
			<stop  offset="0.5" style="stop-color:#FECC00"/>
			<stop  offset="1" style="stop-color:#F8AE00"/>
		</linearGradient>
		<circle fill="url(#SVGID_17_)" cx="88.019" cy="149.86" r="8.423"/>
		<path opacity="0.26" fill="#1D71B8" d="M88.038,132.23c9.946,0,18.062,8.547,18.688,18.336c0.026-0.402,0.061-0.802,0.061-1.21
			c0-10.355-8.394-18.749-18.749-18.749c-10.356,0-18.75,8.394-18.75,18.749c0,0.408,0.036,0.808,0.061,1.21
			C69.975,140.777,78.09,132.23,88.038,132.23z"/>
	</g>
	<g>
		<linearGradient id="SVGID_18_" gradientUnits="userSpaceOnUse" x1="77.2725" y1="226.7363" x2="105.9194" y2="276.3543">
			<stop  offset="0" style="stop-color:#47C1F0"/>
			<stop  offset="0.5" style="stop-color:#00A0E4"/>
			<stop  offset="1" style="stop-color:#008CD3"/>
		</linearGradient>
		<path fill="url(#SVGID_18_)" d="M108.174,244.046c0-11.207-9.085-20.292-20.292-20.292c-11.207,0-20.292,9.085-20.292,20.292
			c0,6.328,2.897,11.979,7.437,15.7l12.855,27.022l12.856-27.023C105.277,256.024,108.174,250.374,108.174,244.046z"/>
		<g>
			<defs>
				<polygon id="SVGID_19_" points="107.532,224.264 63.374,266.635 64.65,224.264 86.856,220.436 				"/>
			</defs>
			<clipPath id="SVGID_20_">
				<use xlink:href="#SVGID_19_"  overflow="visible" opacity="0.44"/>
			</clipPath>
			<path opacity="0.2" clip-path="url(#SVGID_20_)" fill="#FFFFFF" d="M108.174,243.982c0-11.207-9.085-20.292-20.292-20.292
				c-11.207,0-20.292,9.085-20.292,20.292c0,6.328,2.897,11.979,7.437,15.7l12.855,27.022l12.856-27.023
				C105.277,255.96,108.174,250.31,108.174,243.982z"/>
		</g>
		<linearGradient id="SVGID_21_" gradientUnits="userSpaceOnUse" x1="83.2603" y1="252.2051" x2="92.5782" y2="236.0658">
			<stop  offset="0" style="stop-color:#47C1F0"/>
			<stop  offset="0.5" style="stop-color:#00A0E4"/>
			<stop  offset="1" style="stop-color:#008CD3"/>
		</linearGradient>
		<circle fill="url(#SVGID_21_)" cx="87.918" cy="244.135" r="9.316"/>
		<linearGradient id="SVGID_22_" gradientUnits="userSpaceOnUse" x1="84.2646" y1="237.7241" x2="91.668" y2="250.547">
			<stop  offset="0" style="stop-color:#FFEBA9"/>
			<stop  offset="0.5" style="stop-color:#FECC00"/>
			<stop  offset="1" style="stop-color:#F8AE00"/>
		</linearGradient>
		<circle fill="url(#SVGID_22_)" cx="87.966" cy="244.135" r="7.402"/>
		<path opacity="0.26" fill="#1D71B8" d="M87.897,225.502c10.767,0,19.55,9.215,20.229,19.768c0.028-0.434,0.064-0.866,0.064-1.305
			c0-11.163-9.086-20.212-20.294-20.212c-11.208,0-20.294,9.049-20.294,20.212c0,0.438,0.039,0.871,0.065,1.305
			C68.347,234.717,77.131,225.502,87.897,225.502z"/>
	</g>
	<g>
		<linearGradient id="SVGID_23_" gradientUnits="userSpaceOnUse" x1="77.856" y1="322.3149" x2="102.0952" y2="364.2986">
			<stop  offset="0" style="stop-color:#47C1F0"/>
			<stop  offset="0.5" style="stop-color:#00A0E4"/>
			<stop  offset="1" style="stop-color:#008CD3"/>
		</linearGradient>
		<path fill="url(#SVGID_23_)" d="M108.295,339.891c0-11.207-9.085-20.292-20.292-20.292s-20.292,9.085-20.292,20.292
			c0,7.719,4.31,14.431,10.655,17.861l9.637,14.683l9.636-14.682C103.984,354.322,108.295,347.61,108.295,339.891z"/>
		<g>
			<defs>
				<polygon id="SVGID_24_" points="110.084,316.918 65.927,358.523 63.119,311.048 112.126,311.048 				"/>
			</defs>
			<clipPath id="SVGID_25_">
				<use xlink:href="#SVGID_24_"  overflow="visible"/>
			</clipPath>
			<path opacity="0.2" clip-path="url(#SVGID_25_)" fill="#FFFFFF" d="M108.295,339.763c0-11.207-9.085-20.292-20.292-20.292
				s-20.292,9.085-20.292,20.292c0,7.719,4.31,14.431,10.655,17.861l9.637,14.683l9.636-14.682
				C103.984,354.194,108.295,347.483,108.295,339.763z"/>
		</g>
		<circle fill="#FFFFFF" cx="88.003" cy="340.039" r="9.316"/>
		<linearGradient id="SVGID_26_" gradientUnits="userSpaceOnUse" x1="88.019" y1="332.5557" x2="88.019" y2="347.6157">
			<stop  offset="0" style="stop-color:#FFEBA9"/>
			<stop  offset="0.5" style="stop-color:#FECC00"/>
			<stop  offset="1" style="stop-color:#F8AE00"/>
		</linearGradient>
		<circle fill="url(#SVGID_26_)" cx="88.019" cy="340.086" r="7.53"/>
		<path opacity="0.26" fill="#1D71B8" d="M87.982,321.354c10.761,0,19.541,9.278,20.219,19.903c0.028-0.437,0.065-0.871,0.065-1.313
			c0-11.239-9.082-20.351-20.284-20.351c-11.202,0-20.284,9.112-20.284,20.351c0,0.442,0.039,0.876,0.066,1.313
			C68.442,330.633,77.222,321.354,87.982,321.354z"/>
	</g>
	<g>
		<path fill="none" stroke="#009FE3" stroke-width="3" d="M540.564,339.891c0-11.207-9.086-20.292-20.292-20.292
			c-11.208,0-20.292,9.085-20.292,20.292c0,7.719,4.311,14.431,10.654,17.861l9.638,14.683l9.636-14.682
			C536.253,354.322,540.564,347.61,540.564,339.891z"/>
		<circle fill="none" stroke="#009FE3" stroke-width="3" cx="520.271" cy="339.445" r="9.316"/>
	</g>
	<g>
		<linearGradient id="SVGID_27_" gradientUnits="userSpaceOnUse" x1="401.7988" y1="701.0762" x2="404.4199" y2="701.0762">
			<stop  offset="0" style="stop-color:#C6C6C6"/>
			<stop  offset="0.2667" style="stop-color:#EDEDED"/>
			<stop  offset="1" style="stop-color:#C1C1C2"/>
		</linearGradient>
		<polygon fill="url(#SVGID_27_)" points="404.42,723.02 403.125,725.31 401.799,723.02 401.799,676.842 404.42,676.842 		"/>
		<linearGradient id="SVGID_28_" gradientUnits="userSpaceOnUse" x1="404.7559" y1="684.6963" x2="429.0322" y2="684.6963">
			<stop  offset="0" style="stop-color:#F3944C"/>
			<stop  offset="0.5" style="stop-color:#ED6D05"/>
			<stop  offset="1" style="stop-color:#D25917"/>
		</linearGradient>
		<polygon fill="url(#SVGID_28_)" points="404.756,692.551 404.756,676.842 429.032,676.842 		"/>
	</g>
	<g>
		<linearGradient id="SVGID_29_" gradientUnits="userSpaceOnUse" x1="90.479" y1="596.123" x2="90.479" y2="642.262">
			<stop  offset="0" style="stop-color:#47C1F0"/>
			<stop  offset="0.5" style="stop-color:#00A0E4"/>
			<stop  offset="1" style="stop-color:#008CD3"/>
		</linearGradient>
		<path fill="url(#SVGID_29_)" d="M103.75,598.456H77.208c-2.398,0-4.341,1.943-4.341,4.342v26.54c0,2.398,1.943,4.343,4.341,4.343
			h5.421l7.85,7.85l7.849-7.85h5.422c2.397,0,4.341-1.944,4.341-4.343v-26.54C108.091,600.399,106.147,598.456,103.75,598.456z"/>
		<g opacity="0.2">
			<defs>
				<polygon id="SVGID_30_" opacity="0.2" points="116.465,592.583 71.286,634.698 51.745,587.149 97.906,566.342 				"/>
			</defs>
			<clipPath id="SVGID_31_">
				<use xlink:href="#SVGID_30_"  overflow="visible"/>
			</clipPath>
			<path clip-path="url(#SVGID_31_)" fill="#FFFFFF" d="M103.75,598.475H77.208c-2.397,0-4.341,1.944-4.341,4.342v26.541
				c0,2.396,1.943,4.342,4.341,4.342h5.421l7.85,7.85l7.849-7.85h5.421c2.398,0,4.342-1.945,4.342-4.342v-26.541
				C108.092,600.419,106.148,598.475,103.75,598.475z"/>
		</g>
		<path opacity="0.4" fill="#009FE3" d="M103.75,598.455H77.208c-2.398,0-4.341,1.943-4.341,4.342v0.411
			c0,0,0.222-3.925,4.242-3.925c0,0,6.944,0,13.592,0c6.951,0,12.188,0,13.369,0c3.605,0,4.022,3.925,4.022,3.925v-0.411
			C108.091,600.398,106.147,598.455,103.75,598.455z"/>
		<linearGradient id="SVGID_32_" gradientUnits="userSpaceOnUse" x1="90.4634" y1="628.4072" x2="90.4634" y2="603.6484">
			<stop  offset="0" style="stop-color:#47C1F0"/>
			<stop  offset="0.5" style="stop-color:#00A0E4"/>
			<stop  offset="1" style="stop-color:#008CD3"/>
		</linearGradient>
		<path fill="url(#SVGID_32_)" d="M102.783,625.356c0,1.684-1.359,3.051-3.037,3.051H81.18c-1.677,0-3.037-1.367-3.037-3.051V606.7
			c0-1.686,1.36-3.052,3.037-3.052h18.566c1.677,0,3.037,1.366,3.037,3.052V625.356z"/>
		<linearGradient id="SVGID_33_" gradientUnits="userSpaceOnUse" x1="90.4629" y1="606.9512" x2="90.4629" y2="625.1055">
			<stop  offset="0" style="stop-color:#F3944C"/>
			<stop  offset="0.5" style="stop-color:#ED6D05"/>
			<stop  offset="1" style="stop-color:#D25917"/>
		</linearGradient>
		<path fill="url(#SVGID_33_)" d="M99.496,622.868c0,1.235-0.997,2.237-2.227,2.237H83.656c-1.229,0-2.227-1.002-2.227-2.237v-13.68
			c0-1.236,0.997-2.237,2.227-2.237H97.27c1.23,0,2.227,1.001,2.227,2.237V622.868z"/>
	</g>
	<g>
		<linearGradient id="SVGID_34_" gradientUnits="userSpaceOnUse" x1="194.3018" y1="598.0186" x2="194.3018" y2="640.885">
			<stop  offset="0" style="stop-color:#47C1F0"/>
			<stop  offset="0.5" style="stop-color:#00A0E4"/>
			<stop  offset="1" style="stop-color:#008CD3"/>
		</linearGradient>
		<path fill="url(#SVGID_34_)" d="M207.573,598.456h-26.542c-2.398,0-4.341,1.943-4.341,4.342v26.54
			c0,2.398,1.943,4.343,4.341,4.343h5.421l7.85,7.85l7.85-7.85h5.421c2.397,0,4.341-1.944,4.341-4.343v-26.54
			C211.914,600.399,209.97,598.456,207.573,598.456z M206.565,625.349c0,1.684-1.359,3.051-3.037,3.051h-18.566
			c-1.677,0-3.037-1.367-3.037-3.051v-18.657c0-1.685,1.36-3.051,3.037-3.051h18.566c1.677,0,3.037,1.366,3.037,3.051V625.349z"/>
		<linearGradient id="SVGID_35_" gradientUnits="userSpaceOnUse" x1="194.2456" y1="606.4482" x2="194.2456" y2="625.1194">
			<stop  offset="0" style="stop-color:#47C1F0"/>
			<stop  offset="0.5" style="stop-color:#00A0E4"/>
			<stop  offset="1" style="stop-color:#008CD3"/>
		</linearGradient>
		<path fill="url(#SVGID_35_)" d="M201.28,606.639h-14.069c-1.271,0-2.301,1.035-2.301,2.313v14.138
			c0,1.275,1.031,2.312,2.301,2.312h14.069c1.271,0,2.302-1.036,2.302-2.312v-14.138
			C203.582,607.674,202.551,606.639,201.28,606.639z"/>
	</g>
	<linearGradient id="SVGID_36_" gradientUnits="userSpaceOnUse" x1="302.5986" y1="596.123" x2="302.5986" y2="642.262">
		<stop  offset="0" style="stop-color:#47C1F0"/>
		<stop  offset="0.5" style="stop-color:#00A0E4"/>
		<stop  offset="1" style="stop-color:#008CD3"/>
	</linearGradient>
	<path fill="url(#SVGID_36_)" d="M315.869,598.456h-26.542c-2.397,0-4.341,1.943-4.341,4.342v26.54c0,2.398,1.944,4.343,4.341,4.343
		h5.422l7.85,7.85l7.848-7.85h5.422c2.397,0,4.342-1.944,4.342-4.343v-26.54C320.211,600.399,318.267,598.456,315.869,598.456z
		 M314.918,625.333c0,1.684-1.359,3.051-3.036,3.051h-18.566c-1.677,0-3.037-1.367-3.037-3.051v-18.657
		c0-1.685,1.36-3.051,3.037-3.051h18.566c1.677,0,3.036,1.366,3.036,3.051V625.333z"/>
	<g>
		<path fill="#009FE3" d="M422.188,598.456h-26.541c-2.398,0-4.341,1.943-4.341,4.342v26.54c0,2.398,1.942,4.343,4.341,4.343h5.421
			l7.851,7.85l7.848-7.85h5.422c2.397,0,4.342-1.944,4.342-4.343v-26.54C426.53,600.399,424.586,598.456,422.188,598.456z"/>
		<path fill="#FFFFFF" d="M421.237,625.333c0,1.684-1.36,3.051-3.037,3.051h-18.565c-1.677,0-3.038-1.367-3.038-3.051v-18.657
			c0-1.685,1.361-3.051,3.038-3.051H418.2c1.677,0,3.037,1.366,3.037,3.051V625.333z"/>
	</g>
	<g>
		<path fill="none" stroke="#009FE3" stroke-width="3" stroke-miterlimit="10" d="M535.006,598.456h-26.54
			c-2.398,0-4.342,1.943-4.342,4.342v26.54c0,2.398,1.943,4.343,4.342,4.343h5.419l7.852,7.85l7.849-7.85h5.421
			c2.397,0,4.343-1.944,4.343-4.343v-26.54C539.349,600.399,537.403,598.456,535.006,598.456z"/>
		<path fill="none" stroke="#009FE3" stroke-width="3" stroke-miterlimit="10" d="M533.103,624.722c0,1.554-1.253,2.814-2.801,2.814
			h-17.129c-1.549,0-2.804-1.261-2.804-2.814v-17.214c0-1.555,1.255-2.814,2.804-2.814h17.129c1.548,0,2.801,1.26,2.801,2.814
			V624.722z"/>
	</g>
	<g>
		<linearGradient id="SVGID_37_" gradientUnits="userSpaceOnUse" x1="194.7798" y1="402.2979" x2="194.7798" y2="458.9634">
			<stop  offset="0" style="stop-color:#47C1F0"/>
			<stop  offset="0.5" style="stop-color:#00A0E4"/>
			<stop  offset="1" style="stop-color:#008CD3"/>
		</linearGradient>
		<path fill="url(#SVGID_37_)" d="M194.779,402.298c-10.889,0-19.717,8.827-19.717,19.718s13.018,36.947,19.717,36.947
			c6.413,0,19.718-26.057,19.718-36.947S205.669,402.298,194.779,402.298z M194.779,438.797c-9.163,0-16.59-7.427-16.59-16.591
			c0-9.163,7.428-16.591,16.59-16.591s16.591,7.428,16.591,16.591C211.37,431.37,203.942,438.797,194.779,438.797z"/>
		<linearGradient id="SVGID_38_" gradientUnits="userSpaceOnUse" x1="194.7793" y1="413.2729" x2="194.7793" y2="429.6089">
			<stop  offset="0" style="stop-color:#47C1F0"/>
			<stop  offset="0.5" style="stop-color:#00A0E4"/>
			<stop  offset="1" style="stop-color:#008CD3"/>
		</linearGradient>
		<circle fill="url(#SVGID_38_)" cx="194.779" cy="421.441" r="8.167"/>
	</g>
	<linearGradient id="SVGID_39_" gradientUnits="userSpaceOnUse" x1="302.8125" y1="402.2979" x2="302.8125" y2="458.9634">
		<stop  offset="0" style="stop-color:#47C1F0"/>
		<stop  offset="0.5" style="stop-color:#00A0E4"/>
		<stop  offset="1" style="stop-color:#008CD3"/>
	</linearGradient>
	<path fill="url(#SVGID_39_)" d="M302.813,402.298c-10.89,0-19.718,8.827-19.718,19.718s13.017,36.947,19.718,36.947
		c6.413,0,19.718-26.057,19.718-36.947S313.702,402.298,302.813,402.298z M302.813,438.797c-9.163,0-16.592-7.427-16.592-16.591
		c0-9.163,7.429-16.591,16.592-16.591c9.162,0,16.59,7.428,16.59,16.591C319.402,431.37,311.975,438.797,302.813,438.797z"/>
	<g>
		<path fill="#009FE3" d="M431.785,422.016c0,10.891-13.305,36.947-19.718,36.947c-6.7,0-19.718-26.057-19.718-36.947
			s8.828-19.718,19.718-19.718C422.958,402.298,431.785,411.125,431.785,422.016z"/>
		<circle fill="#FFFFFF" cx="412.067" cy="422.206" r="16.591"/>
	</g>
	<path fill="none" stroke="#009FE3" stroke-width="3" stroke-miterlimit="10" d="M518.891,402.298
		c-10.891,0-19.718,8.827-19.718,19.718s13.018,36.947,19.718,36.947c6.413,0,19.718-26.057,19.718-36.947
		S529.78,402.298,518.891,402.298z M518.891,429.608c-4.51,0-8.169-3.656-8.169-8.167s3.659-8.168,8.169-8.168
		c4.511,0,8.168,3.657,8.168,8.168S523.401,429.608,518.891,429.608z"/>
	<g>
		<g>
			<linearGradient id="SVGID_40_" gradientUnits="userSpaceOnUse" x1="88.0371" y1="402.2979" x2="88.0371" y2="458.9634">
				<stop  offset="0" style="stop-color:#47C1F0"/>
				<stop  offset="0.5" style="stop-color:#00A0E4"/>
				<stop  offset="1" style="stop-color:#008CD3"/>
			</linearGradient>
			<path fill="url(#SVGID_40_)" d="M107.755,422.016c0,10.891-13.305,36.947-19.718,36.947c-6.7,0-19.718-26.057-19.718-36.947
				s8.828-19.718,19.718-19.718S107.755,411.125,107.755,422.016z"/>
		</g>
		<g opacity="0.2">
			<defs>
				<polygon id="SVGID_41_" opacity="0.2" points="114.167,394.385 65.926,444.924 63.247,414.294 77.03,399.363 				"/>
			</defs>
			<clipPath id="SVGID_42_">
				<use xlink:href="#SVGID_41_"  overflow="visible"/>
			</clipPath>
			<g clip-path="url(#SVGID_42_)">
				<path fill="#FFFFFF" d="M107.754,422.001c0,10.89-13.305,36.946-19.718,36.946c-6.701,0-19.718-26.057-19.718-36.946
					c0-10.891,8.828-19.718,19.718-19.718C98.926,402.283,107.754,411.11,107.754,422.001z"/>
			</g>
		</g>
		<circle fill="#FFFFFF" cx="88.037" cy="422.206" r="16.591"/>
		<linearGradient id="SVGID_43_" gradientUnits="userSpaceOnUse" x1="88.0376" y1="413.2729" x2="88.0376" y2="429.6089">
			<stop  offset="0" style="stop-color:#F3944C"/>
			<stop  offset="0.5" style="stop-color:#ED6D05"/>
			<stop  offset="1" style="stop-color:#D25917"/>
		</linearGradient>
		<circle fill="url(#SVGID_43_)" cx="88.037" cy="421.441" r="8.168"/>
		<path opacity="0.26" fill="#1D71B8" d="M88.501,403.524c11.856,0,18.985,9.784,19.645,20.113c0.027-0.424,0.063-0.847,0.063-1.277
			c0-10.924-8.823-19.781-19.708-19.781c-10.883,0-19.707,8.857-19.707,19.781c0,0.431,0.038,0.854,0.064,1.277
			C69.517,413.308,76.541,403.524,88.501,403.524z"/>
	</g>
	<g>
		<linearGradient id="SVGID_44_" gradientUnits="userSpaceOnUse" x1="194.0874" y1="491.251" x2="194.0874" y2="571.0146">
			<stop  offset="0" style="stop-color:#47C1F0"/>
			<stop  offset="0.5" style="stop-color:#00A0E4"/>
			<stop  offset="1" style="stop-color:#008CD3"/>
		</linearGradient>
		<path fill="url(#SVGID_44_)" d="M211.827,508.991c0-9.797-7.942-17.74-17.739-17.74c-9.798,0-17.74,7.943-17.74,17.74
			c0,7.49,4.644,13.891,11.208,16.492l6.617,45.531l6.627-45.602C207.268,522.766,211.827,516.412,211.827,508.991z"/>
		<circle fill="#FFFFFF" cx="194.088" cy="508.991" r="14.485"/>
		<linearGradient id="SVGID_45_" gradientUnits="userSpaceOnUse" x1="194.0879" y1="496.292" x2="194.0879" y2="521.6895">
			<stop  offset="0" style="stop-color:#47C1F0"/>
			<stop  offset="0.5" style="stop-color:#00A0E4"/>
			<stop  offset="1" style="stop-color:#008CD3"/>
		</linearGradient>
		<circle fill="url(#SVGID_45_)" cx="194.088" cy="508.99" r="12.698"/>
	</g>
	<linearGradient id="SVGID_46_" gradientUnits="userSpaceOnUse" x1="301.4912" y1="491.251" x2="301.4912" y2="571.0146">
		<stop  offset="0" style="stop-color:#47C1F0"/>
		<stop  offset="0.5" style="stop-color:#00A0E4"/>
		<stop  offset="1" style="stop-color:#008CD3"/>
	</linearGradient>
	<path fill="url(#SVGID_46_)" d="M301.49,491.251c-9.797,0-17.739,7.943-17.739,17.74c0,7.49,4.645,13.891,11.209,16.492
		l6.616,45.531l6.627-45.602c6.469-2.647,11.027-9.001,11.027-16.422C319.23,499.194,311.288,491.251,301.49,491.251z
		 M301.49,523.476c-8,0-14.484-6.484-14.484-14.484s6.484-14.485,14.484-14.485c8.002,0,14.485,6.485,14.485,14.485
		S309.492,523.476,301.49,523.476z"/>
	<g>
		<circle fill="#009FE3" cx="410.746" cy="508.991" r="17.74"/>
		<circle fill="#FFFFFF" cx="410.746" cy="508.991" r="14.484"/>
		<polygon fill="#009FE3" points="410.831,571.015 404.099,524.688 417.563,524.688 		"/>
	</g>
	<g>
		<g>
			<path fill="#009FE3" d="M514.826,494.251c8.127,0,14.739,6.612,14.739,14.74c0,6.011-3.597,11.367-9.164,13.646l-1.586,0.649
				l-0.246,1.695l-3.657,25.172l-3.648-25.102l-0.25-1.718l-1.613-0.64c-5.658-2.242-9.313-7.621-9.313-13.703
				C500.087,500.863,506.699,494.251,514.826,494.251 M514.826,491.251c-9.798,0-17.739,7.943-17.739,17.74
				c0,7.49,4.644,13.891,11.208,16.492l6.617,45.531l6.626-45.602c6.469-2.647,11.027-9.001,11.027-16.422
				C532.565,499.194,524.624,491.251,514.826,491.251L514.826,491.251z"/>
		</g>
		<g>
			<path fill="#009FE3" d="M514.826,501.053c4.301,0,7.799,3.498,7.799,7.799s-3.498,7.8-7.799,7.8s-7.799-3.499-7.799-7.8
				S510.525,501.053,514.826,501.053 M514.826,498.053c-5.965,0-10.799,4.835-10.799,10.799c0,5.965,4.834,10.8,10.799,10.8
				s10.799-4.835,10.799-10.8C525.625,502.888,520.791,498.053,514.826,498.053L514.826,498.053z"/>
		</g>
	</g>
	<g>
		<g>
			<g>
				<path fill="#009FE3" d="M105.085,508.991c0-9.797-7.942-17.74-17.739-17.74c-9.798,0-17.74,7.943-17.74,17.74
					c0,7.49,4.644,13.891,11.208,16.492l6.617,45.531l6.627-45.602C100.526,522.766,105.085,516.412,105.085,508.991z"/>
			</g>
			<circle fill="#FFFFFF" cx="87.345" cy="508.991" r="14.485"/>
			<g opacity="0.2">
				<defs>
					
						<rect id="SVGID_47_" x="53.675" y="482.446" transform="matrix(0.7996 -0.6005 0.6005 0.7996 -281.9154 148.1952)" opacity="0.2" width="54.876" height="28.204"/>
				</defs>
				<clipPath id="SVGID_48_">
					<use xlink:href="#SVGID_47_"  overflow="visible"/>
				</clipPath>
				<path clip-path="url(#SVGID_48_)" fill="#FFFFFF" d="M105.085,508.959c0-9.797-7.942-17.739-17.739-17.739
					c-9.798,0-17.74,7.942-17.74,17.739c0,7.49,4.644,13.891,11.208,16.492l6.617,45.531l6.627-45.602
					C100.526,522.732,105.085,516.38,105.085,508.959z"/>
			</g>
			<linearGradient id="SVGID_49_" gradientUnits="userSpaceOnUse" x1="87.3452" y1="496.292" x2="87.3452" y2="521.6895">
				<stop  offset="0" style="stop-color:#F3944C"/>
				<stop  offset="0.5" style="stop-color:#ED6D05"/>
				<stop  offset="1" style="stop-color:#D25917"/>
			</linearGradient>
			<circle fill="url(#SVGID_49_)" cx="87.345" cy="508.99" r="12.698"/>
		</g>
		<path opacity="0.26" fill="#1D71B8" d="M87.356,492.791c9.4,0,17.068,8.052,17.66,17.276c0.025-0.38,0.057-0.756,0.057-1.139
			c0-9.757-7.931-17.668-17.717-17.668c-9.784,0-17.716,7.911-17.716,17.668c0,0.383,0.034,0.759,0.058,1.139
			C70.29,500.843,77.958,492.791,87.356,492.791z"/>
	</g>
	<g>
		<linearGradient id="SVGID_50_" gradientUnits="userSpaceOnUse" x1="86.6826" y1="707.9434" x2="89.3032" y2="707.9434">
			<stop  offset="0" style="stop-color:#C6C6C6"/>
			<stop  offset="0.2667" style="stop-color:#EDEDED"/>
			<stop  offset="1" style="stop-color:#C1C1C2"/>
		</linearGradient>
		<rect x="86.683" y="693.533" fill="url(#SVGID_50_)" width="2.621" height="28.821"/>
		<g>
			<radialGradient id="SVGID_51_" cx="87.8643" cy="685.5313" r="8.3662" gradientUnits="userSpaceOnUse">
				<stop  offset="0" style="stop-color:#F3944C"/>
				<stop  offset="0.5" style="stop-color:#ED6D05"/>
				<stop  offset="1" style="stop-color:#D25917"/>
			</radialGradient>
			<circle fill="url(#SVGID_51_)" cx="87.865" cy="685.531" r="8.366"/>
		</g>
		<g opacity="0.23">
			<circle fill="#FFFFFF" cx="84.904" cy="682.045" r="2.564"/>
		</g>
		<g opacity="0.24">
			<circle fill="#FFFFFF" cx="82.071" cy="684.743" r="0.967"/>
		</g>
		<g>
			<defs>
				<path id="SVGID_52_" d="M92.314,723.008h-8.843v-9.825c0,0-17.371,1.924-17.371,10.772c0,8.8,21.842,10.462,21.842,10.462
					s20.498-2.217,20.498-10.458c0-9.485-16.126-10.776-16.126-10.776V723.008z"/>
			</defs>
			<clipPath id="SVGID_53_">
				<use xlink:href="#SVGID_52_"  overflow="visible"/>
			</clipPath>
			
				<ellipse clip-path="url(#SVGID_53_)" fill="none" stroke="#DADADA" stroke-width="3" stroke-miterlimit="10" cx="87.711" cy="723.172" rx="18.224" ry="6.223"/>
		</g>
	</g>
	<g>
		<linearGradient id="SVGID_54_" gradientUnits="userSpaceOnUse" x1="297.5967" y1="699.8223" x2="300.2148" y2="699.8223">
			<stop  offset="0" style="stop-color:#C6C6C6"/>
			<stop  offset="0.2667" style="stop-color:#EDEDED"/>
			<stop  offset="1" style="stop-color:#C1C1C2"/>
		</linearGradient>
		<rect x="297.597" y="676.781" fill="url(#SVGID_54_)" width="2.618" height="46.082"/>
		<linearGradient id="SVGID_55_" gradientUnits="userSpaceOnUse" x1="300.6094" y1="684.8184" x2="324.8867" y2="684.8184">
			<stop  offset="0" style="stop-color:#F3944C"/>
			<stop  offset="0.5" style="stop-color:#ED6D05"/>
			<stop  offset="1" style="stop-color:#D25917"/>
		</linearGradient>
		<path fill="url(#SVGID_55_)" d="M300.609,693.7v-16.924c0,0,4.855,2.143,11.211,0c8.043-2.711,13.066,1.214,13.066,1.214
			s-4.427,0-11.353,11.996C310.741,694.824,300.609,693.7,300.609,693.7z"/>
		<g>
			<defs>
				<path id="SVGID_56_" d="M303.419,723.008h-8.843v-9.825c0,0-17.371,1.924-17.371,10.772c0,8.8,21.843,10.462,21.843,10.462
					s20.497-2.217,20.497-10.458c0-9.485-16.126-10.776-16.126-10.776V723.008z"/>
			</defs>
			<clipPath id="SVGID_57_">
				<use xlink:href="#SVGID_56_"  overflow="visible"/>
			</clipPath>
			
				<ellipse clip-path="url(#SVGID_57_)" fill="none" stroke="#DADADA" stroke-width="3" stroke-miterlimit="10" cx="298.816" cy="723.172" rx="18.224" ry="6.223"/>
		</g>
	</g>
	<g>
		<rect x="519.972" y="697.311" fill="#009FE3" width="2.621" height="24.278"/>
		<g>
			<circle fill="none" stroke="#009FE3" stroke-width="3" stroke-miterlimit="10" cx="521.219" cy="687.286" r="10.153"/>
		</g>
		<g>
			<g>
				<path fill="#009FE3" d="M521.219,683.77c1.938,0,3.516,1.577,3.516,3.517c0,1.938-1.577,3.515-3.516,3.515
					c-1.939,0-3.517-1.576-3.517-3.515C517.702,685.347,519.279,683.77,521.219,683.77 M521.219,680.77
					c-3.599,0-6.517,2.918-6.517,6.517c0,3.598,2.918,6.515,6.517,6.515c3.598,0,6.516-2.917,6.516-6.515
					C527.734,683.688,524.816,680.77,521.219,680.77L521.219,680.77z"/>
			</g>
		</g>
		<g>
			<defs>
				<path id="SVGID_58_" d="M525.751,722.771h-8.844v-9.825c0,0-17.37,1.924-17.37,10.772c0,8.8,21.843,10.462,21.843,10.462
					s20.497-2.217,20.497-10.458c0-9.485-16.126-10.776-16.126-10.776V722.771z"/>
			</defs>
			<clipPath id="SVGID_59_">
				<use xlink:href="#SVGID_58_"  overflow="visible"/>
			</clipPath>
			
				<ellipse clip-path="url(#SVGID_59_)" fill="none" stroke="#009FE3" stroke-width="3" stroke-miterlimit="10" cx="521.147" cy="722.935" rx="18.224" ry="6.223"/>
		</g>
	</g>
</g>
</svg>
